<svg width="16" height="18" viewBox="0 0 16 18" fill="none" xmlns="http://www.w3.org/2000/svg">
<path d="M13.8333 7.33317H14.6667C14.8877 7.33317 15.0996 7.42097 15.2559 7.57725C15.4122 7.73353 15.5 7.94549 15.5 8.1665V16.4998C15.5 16.7208 15.4122 16.9328 15.2559 17.0891C15.0996 17.2454 14.8877 17.3332 14.6667 17.3332H1.33333C1.11232 17.3332 0.900358 17.2454 0.744078 17.0891C0.587797 16.9328 0.5 16.7208 0.5 16.4998V8.1665C0.5 7.94549 0.587797 7.73353 0.744078 7.57725C0.900358 7.42097 1.11232 7.33317 1.33333 7.33317H2.16667V6.49984C2.16667 5.73379 2.31755 4.97525 2.6107 4.26752C2.90386 3.55978 3.33354 2.91672 3.87521 2.37505C4.41689 1.83337 5.05995 1.40369 5.76768 1.11054C6.47541 0.817387 7.23396 0.666504 8 0.666504C8.76604 0.666504 9.52459 0.817387 10.2323 1.11054C10.9401 1.40369 11.5831 1.83337 12.1248 2.37505C12.6665 2.91672 13.0961 3.55978 13.3893 4.26752C13.6825 4.97525 13.8333 5.73379 13.8333 6.49984V7.33317ZM12.1667 7.33317V6.49984C12.1667 5.39477 11.7277 4.33496 10.9463 3.55356C10.1649 2.77216 9.10507 2.33317 8 2.33317C6.89493 2.33317 5.83512 2.77216 5.05372 3.55356C4.27232 4.33496 3.83333 5.39477 3.83333 6.49984V7.33317H12.1667ZM7.16667 10.6665V13.9998H8.83333V10.6665H7.16667Z" fill="white"/>
</svg>
