<?xml version="1.0" encoding="UTF-8"?><svg id="Layer_1" xmlns="http://www.w3.org/2000/svg" viewBox="0 0 400 400"><defs><style>.cls-1{fill:#fff;}</style></defs><path class="cls-1" d="M135.52,172.37c58.94,9.73,26.27-17.81,26.27-17.81-12.19,15.63-28.31,17.47-26.27,17.81Z"/><path class="cls-1" d="M169.62,177.96c.43-.15-.42-.16,0,0h0Z"/><path class="cls-1" d="M151.64,180.58s-19.93-9.47-30.67-1.75c-15.93,11.45,3.28,53.52,3.28,53.52-2.22-42.43,27.39-51.77,27.39-51.77Z"/><path class="cls-1" d="M150.61,278.17c66.74-65.02,25.29-97.82,19.02-100.21-70.03,24.31-28.07,89.92-21.1,100.01,.48,.7,1.47,.79,2.08,.2Z"/><path class="cls-1" d="M163.53,272.86s-28.12,28.1-16.56,59.64c.27,.74,1.21,.96,1.78,.41,4.49-4.39,19.76-22.39,14.78-60.05Z"/><path class="cls-1" d="M160.62,346.52c16.86,6.47,10.48-44.59,10.48-44.59-25.01,41.17-10.48,44.59-10.48,44.59Z"/><path class="cls-1" d="M264.48,172.37c2.04-.34-14.08-2.17-26.27-17.81,0,0-32.67,27.53,26.27,17.81Z"/><path class="cls-1" d="M231.03,155.12c10.04-7.39-12.79-8.84-13.8-28.26,0,0,.74,37.87,13.8,28.26Z"/><path class="cls-1" d="M199.7,226.86c-23.42,21.79,.71,62.15,.71,62.15,0,0,24.12-40.37,.71-62.15-.4-.36-1.02-.36-1.42,0Z"/><path class="cls-1" d="M201.09,143.8c-.44-.15-.92-.15-1.36,0-31.44,10.83,.68,77.91,.68,77.91,0,0,32.12-67.09,.68-77.91Z"/><path class="cls-1" d="M168.97,155.12c13.06,9.61,13.79-28.26,13.79-28.26-1,19.42-23.82,20.87-13.79,28.26Z"/><path class="cls-1" d="M184.07,251.01c-.17-.67-1.01-.89-1.49-.39-20.36,20.71-10.4,47.08-10.4,47.08,17.37-18.5,13.35-40.83,11.89-46.69Z"/><path class="cls-1" d="M230.38,177.96c.42-.16-.43-.15,0,0h0Z"/><path class="cls-1" d="M230.38,177.96c-6.27,2.39-47.72,35.19,19.02,100.21,.61,.59,1.6,.5,2.08-.2,6.97-10.08,48.93-75.7-21.1-100.01Z"/><path class="cls-1" d="M178.99,343.85c.22,.77,1.09,.93,1.53,.29,15.91-23,9.13-65.58,9.13-65.58-17.29,35.04-12.47,58.97-10.66,65.29Z"/><path class="cls-1" d="M200,3.66C91.56,3.66,3.66,91.56,3.66,200s87.9,196.34,196.34,196.34,196.34-87.91,196.34-196.34S308.44,3.66,200,3.66Zm87.04,220c-5.95,16.22-29.74,60.56-29.74,60.56-3.51,10,5.68,17.3,2.43,41.9-2.39,18.15-15.45,22.36-22.13,23.32-2.13,.31-4.27-.16-6.13-1.24-2.88-1.68-7.9-3.45-10.61,2.25-3.93,8.28-20.77-.68-20.87-.74-.1,.06-16.95,9.01-20.87,.74-2.72-5.73-7.77-3.91-10.65-2.23-1.9,1.11-4.13,1.51-6.31,1.18-6.74-1.02-19.54-5.34-21.91-23.29-3.24-24.6,5.95-31.9,2.43-41.9,0,0-23.79-44.34-29.74-60.56s-7.3-38.39,6.49-48.25c13.79-9.87,44.37-24.74,53-39.07s7.82-13.25,7.28-31.36c-.54-18.11-6.31-54.88-.99-58.93,0,0,6.67,22.98,9.64,60.29,2.55,32.03,9.53,33.26,11.24,33.07,.25-.03,.51-.03,.76,0,1.71,.19,8.68-1.04,11.23-33.07,2.97-37.31,9.64-60.29,9.64-60.29,5.32,4.06-.45,40.82-.99,58.93-.54,18.11-1.35,17.03,7.28,31.36,8.63,14.33,39.22,29.2,53,39.07,13.82,9.87,12.47,32.04,6.52,48.26Z"/><path class="cls-1" d="M279.03,178.83c-10.74-7.72-30.67,1.75-30.67,1.75,0,0,29.6,9.34,27.39,51.77,0,0,19.21-42.07,3.28-53.52Z"/><path class="cls-1" d="M251.24,332.91c.57,.55,1.51,.34,1.78-.41,11.56-31.54-16.56-59.64-16.56-59.64-4.97,37.66,10.3,55.66,14.78,60.05Z"/><path class="cls-1" d="M199.63,293.03c-9.8,9.63,.78,54.02,.78,54.02,0,0,10.59-44.38,.78-54.02-.43-.42-1.13-.42-1.56,0Z"/><path class="cls-1" d="M219.48,344.14c.44,.64,1.32,.48,1.53-.29,1.81-6.32,6.63-30.26-10.66-65.29,0,0-6.78,42.58,9.13,65.58Z"/><path class="cls-1" d="M217.42,250.62c-.49-.49-1.32-.28-1.49,.39-1.46,5.86-5.48,28.18,11.89,46.68,0,.01,9.96-26.36-10.4-47.07Z"/><path class="cls-1" d="M239.38,346.52s14.53-3.41-10.48-44.59c0,0-6.38,51.06,10.48,44.59Z"/></svg>