<svg width="22" height="18" viewBox="0 0 22 18" fill="none" xmlns="http://www.w3.org/2000/svg">
<path d="M21.1621 2.656C20.3986 2.9937 19.589 3.21548 18.7601 3.314C19.6338 2.79144 20.2878 1.96902 20.6001 1C19.7801 1.488 18.8811 1.83 17.9441 2.015C17.3147 1.34158 16.4804 0.894966 15.571 0.744588C14.6616 0.594209 13.728 0.748494 12.9153 1.18346C12.1026 1.61842 11.4564 2.30969 11.0772 3.1498C10.6979 3.9899 10.6068 4.93178 10.8181 5.829C9.15516 5.74566 7.52838 5.31353 6.04334 4.56067C4.55829 3.80781 3.24818 2.75105 2.19805 1.459C1.82634 2.09745 1.63101 2.82323 1.63205 3.562C1.63205 5.012 2.37005 6.293 3.49205 7.043C2.82806 7.0221 2.17869 6.84278 1.59805 6.52V6.572C1.59825 7.5377 1.93242 8.47362 2.5439 9.22106C3.15538 9.96851 4.00653 10.4815 4.95305 10.673C4.33667 10.84 3.69036 10.8647 3.06305 10.745C3.32992 11.5762 3.85006 12.3032 4.55064 12.8241C5.25123 13.345 6.09718 13.6338 6.97005 13.65C6.10253 14.3313 5.10923 14.835 4.04693 15.1322C2.98464 15.4294 1.87418 15.5143 0.779053 15.382C2.69075 16.6114 4.91615 17.2641 7.18905 17.262C14.8821 17.262 19.0891 10.889 19.0891 5.362C19.0891 5.182 19.0841 5 19.0761 4.822C19.8949 4.23017 20.6017 3.49702 21.1631 2.657L21.1621 2.656Z" fill="white"/>
</svg>
