<svg width="24" height="24" viewBox="0 0 24 24" fill="none" xmlns="http://www.w3.org/2000/svg">
<g clip-path="url(#clip0_1610_10)">
<path d="M12 0C5.373 0 0 5.373 0 12C0 18.627 5.373 24 12 24C18.627 24 24 18.627 24 12C24 5.373 18.627 0 12 0ZM17.82 11.419C16.514 14.211 13.357 18.014 11.362 18.014C9.396 18.014 9.112 13.822 8.038 11.031C7.511 9.659 7.17 9.973 6.18 10.667L5.576 9.888C7.02 8.618 8.465 7.143 9.354 7.062C10.352 6.966 10.969 7.649 11.199 9.113C11.504 11.037 11.928 14.023 12.671 14.023C13.248 14.023 14.674 11.654 14.747 10.808C14.877 9.568 13.835 9.531 12.932 9.918C14.362 5.229 20.315 6.093 17.82 11.419V11.419Z" fill="white"/>
</g>
<defs>
<clipPath id="clip0_1610_10">
<rect width="24" height="24" fill="white"/>
</clipPath>
</defs>
</svg>
